<svg xmlns="http://www.w3.org/2000/svg" viewBox="0 0 343.84 297.18"><defs><style>.cls-1{fill:#0072bb;}.cls-1,.cls-2,.cls-3,.cls-4{fill-rule:evenodd;}.cls-2{fill:#005098;}.cls-3{fill:#35b4e9;}</style></defs><title>Asset 1</title><g id="Layer_2" data-name="Layer 2"><g id="Layer_1-2" data-name="Layer 1"><path class="cls-1" d="M190.6,86.15l-.31.4.31-.4Zm39.14-36.44h0Zm0,0h0Zm0,0h0Zm0,0h0Zm0,0h0Zm0,0h0Zm0,0h0Zm0,0h0Zm0,0h0Zm0,0h0Zm0,0h0Zm0,0h0Zm0,0h0Zm0,0h0Zm0,0h0Zm0,0h0Zm0,0h0Zm0,0h0Zm.2,0h0Zm.24,0h0Zm3.4.22L234,50l-.35-.05Zm35.65-7.61.25-.4-.16.26-.09.15ZM162.08,14A85,85,0,1,0,184.77,182a84.61,84.61,0,0,1-12-43.65q0-.68,0-1.35A74,74,0,0,1,162.11,14Zm15.3,96.44q.59-1.69,1.24-3.35-.65,1.66-1.24,3.35Zm1.72-4.54.43-1-.43,1Zm.73-1.71.41-.92-.41.92ZM181.3,101l.12-.24.12-.24-.24.48Zm1.48-2.9h0Zm0,0h0Zm0,0h0Zm0,0h0Zm0,0h0Zm0,0h0Zm0,0h0Zm0,0h0Zm0,0h0Zm0,0h0Zm0,0h0Zm0,0h0Zm0,0h0Zm0,0h0Zm0,0h0Zm0,0h0Zm0-.08h0Zm0-.07h0Zm0-.06h0Zm0-.06h0Zm0-.06h0Zm0,0h0Zm0,0h0Zm0,0h0Zm0,0h0Zm.49-.88v0Zm0,0v0Zm0,0v0Zm0,0v0h0v0Zm.17-.29h0v-.09l-.06.11Zm.06-.11v0Zm0,0v0Zm0,0V96h0v0l-.06.11ZM184,96v0h0v0Zm0-.07,0,0,0,0Zm.05-.09v0Zm0,0h0Zm0,0h0v0h0v0Zm0,0h0v0h0v0Zm0,0h0v0h0v0Zm0,0h0v0h0v0Zm0,0v0Zm0,0v0Zm0,0v0Zm0-.07v0Zm0,0h0v0h0v0Zm0-.07h0v0Zm0,0v0Zm0,0v0Zm0,0v0Zm0,0v0Zm.07-.12h.08v0h.09v0h.21l-.39.66Zm64.32-31.72a13.63,13.63,0,0,1-3.37,4.77h.21l.06-.06.06-.06.06-.06h0l.06-.06h0l.06-.06h0l.06-.07h0l.06-.06h0l.06-.07h0l.06-.07h0l.06-.07h0l.06-.07h0l.06-.07h0l.06-.07h0l.06-.07h0l.06-.07h0l.06-.07h0l.06-.07h0l.06-.07h0l.05-.07h0l.05-.07h0l.05-.07h0l.05-.07h0l.05-.07h0l.05-.07h0l.05-.07h0l.05-.07h0l.05-.07h0l.05-.07h0l0-.07h0l0-.07h0l0-.07h0l0-.07h0l0-.07h0l0-.07h0l0-.07h0l0-.07h0l0-.07h0l0-.07h0l0-.07h0l0-.07h0l0-.07h0l0-.07h0l0-.07h0l0-.08h0l0-.08h0l0-.08h0l0-.08h0l0-.08h0l0-.08h0l0-.08h0l0-.08h0l0-.08h0l0-.08h0l0-.08h0l0-.08,0-.08h0l0-.08h0l0-.08h0l0-.08h0l0-.08h0l0-.08h0l0-.08h0l0-.08h0l0-.07Zm4.63,2.45,0,0,0,0Zm0,0a13.66,13.66,0,0,0,3.8-3.89l0,.08h0l0,.06h0l0,.06h0l0,.06h0l0,.07h0l0,.07h0l0,.07h0l-.05.07h0l-.05.07h0l-.05.07h0l-.1.14h0l0,.06h0l0,.06h0l0,.06h0l0,.05v0l0,.05v0l0,0,0,0,0,0,0,0,0,0,0,0,0,0,0,0,0,0,0,0,0,0,0,0,0,0,0,0,0,0,0,0,0,0-.06.06,0,0,0,0,0,0,0,0,0,0,0,0,0,0,0,0,0,0,0,0,0,0,0,0,0,0,0,0,0,0h0l0,0h0l-.05,0h0l-.05.05h0l-.06.05h0l-.06.05h0l-.06.05h0l-.06.06h0l-.06.06h0l-.07.06h0l-.06.06h0l-.06.05h0l-.06.05h0l-.06,0h0l-.06,0h0l-.06,0h0l-.05,0h0l-.05,0h0l-.05,0,0,0,0,0,0,0,0,0,0,0,0,0,0,0,0,0,0,0,0,0,0,0,0,0,0,0,0,0,0,0,0,0,0,0,0,0Z"/><path class="cls-2" d="M224.2,89.75l.52.16-.52-.16Zm27.73-69.59a66.27,66.27,0,0,0-40,1,41.9,41.9,0,0,1,38.57-6.77c-14.69-11.58-41.75-15.82-58-11.58a39.64,39.64,0,0,0-40.62,7q.56-.06,1.13-.06a11.31,11.31,0,0,1,8.89,4.3h.2a74,74,0,0,0,10.62,122.93,84.66,84.66,0,0,1,17.87-50.8l.2-.25a13.27,13.27,0,0,0,2.48,7.37,12.55,12.55,0,0,1,15,4.91,13.36,13.36,0,0,1-12.15-2,32.24,32.24,0,0,0,49.93-12.37,20.54,20.54,0,0,1-8.42,5.74l.17-.21h0a13.55,13.55,0,0,0,3-8.57V80.7a21.37,21.37,0,0,1-25.65,3.07,20.7,20.7,0,0,1-1.5-1.94,20.43,20.43,0,0,1-3.3-8.11,20.55,20.55,0,0,1,18.83-24q.7,0,1.41,0h0a20.55,20.55,0,0,1,5.65.8q.67.19,1.31.43a18.06,18.06,0,0,0,12.19,6.15v.06q0,.48,0,1a13.56,13.56,0,0,1-1.06,5.26,14.15,14.15,0,0,1-3.17,4.78h.19a13.53,13.53,0,0,0,7.53-2.27l0,0a14.07,14.07,0,0,0,4-4.09,13.53,13.53,0,0,0,2-6.46h0v-.09A18.13,18.13,0,0,0,269,42.89q.2-.38.42-.74a11.82,11.82,0,0,1,5.47-4.68,27.8,27.8,0,0,0-17.19-15.23l-.08-.12Q254.83,21,251.93,20.16Z"/><path class="cls-3" d="M111.89,97.14a94.79,94.79,0,0,1,49-83.05,85,85,0,0,0,5.56,169.83l1.92,0A94.84,94.84,0,0,1,111.89,97.14Z"/><path class="cls-4" d="M1.68,249.55a11.35,11.35,0,0,0,2.54,1.19,12,12,0,0,0,4.11.65A7.21,7.21,0,0,0,12,250.6,5,5,0,0,0,14,248.2a13.16,13.16,0,0,0,.92-4q.22-2.41.22-5.65V219h7.46v19.52a63.26,63.26,0,0,1-.46,8,16.09,16.09,0,0,1-1.95,6.14,10,10,0,0,1-4.3,3.95A17.09,17.09,0,0,1,8.33,258,14.34,14.34,0,0,1,0,255.61l1.68-6.06ZM40.29,219h6.6l14.6,38.4H53.81l-3.57-9.57H36.83l-3.52,9.57H25.63L40.29,219Zm8.6,23.58-5.3-15.09-5.52,15.09ZM91,253.07a14.68,14.68,0,0,1-10.71,4.6,17,17,0,0,1-7.11-1.51A18,18,0,0,1,67.36,252a19.9,19.9,0,0,1-3.89-6.25A20.77,20.77,0,0,1,62,238a19.49,19.49,0,0,1,5.38-13.55,18.91,18.91,0,0,1,5.92-4.16,17.77,17.77,0,0,1,7.41-1.54A18,18,0,0,1,90,221a14.7,14.7,0,0,1,5.81,6.11l-5.57,4.11a10.34,10.34,0,0,0-4.08-4.38,11.21,11.21,0,0,0-5.71-1.51,9.73,9.73,0,0,0-4.46,1,10.45,10.45,0,0,0-3.46,2.81,13.27,13.27,0,0,0-2.22,4.11,15.3,15.3,0,0,0-.78,4.92,14.53,14.53,0,0,0,.87,5.06,12.88,12.88,0,0,0,2.38,4.08,11.14,11.14,0,0,0,3.6,2.73,10.29,10.29,0,0,0,4.52,1q5.57,0,10.06-5.25v-2.7H83.23v-5.46h13.9v19.74H91v-4.33Zm28.77-2A8.56,8.56,0,0,0,124.2,250a8.73,8.73,0,0,0,2.92-2.81,11.62,11.62,0,0,0,1.57-4,23,23,0,0,0,.46-4.62V219h7.41v19.58a28,28,0,0,1-.95,7.41,17,17,0,0,1-3,6.06,14.25,14.25,0,0,1-5.22,4.11,17.65,17.65,0,0,1-7.63,1.51,17.46,17.46,0,0,1-7.81-1.6,14.59,14.59,0,0,1-5.22-4.22,16.84,16.84,0,0,1-2.89-6.08,28.69,28.69,0,0,1-.89-7.19V219h7.46v19.58a23.26,23.26,0,0,0,.46,4.68,11.61,11.61,0,0,0,1.57,4,8.13,8.13,0,0,0,7.27,3.84ZM153.37,219H160l14.6,38.4h-7.68l-3.57-9.57H149.91l-3.52,9.57h-7.68L153.37,219Zm8.6,23.58-5.3-15.09-5.52,15.09Zm16.82,14.82V219h17a10.9,10.9,0,0,1,4.89,1.11,12.67,12.67,0,0,1,3.87,2.92,13.78,13.78,0,0,1,2.54,4.11,12.36,12.36,0,0,1,.92,4.62,12.77,12.77,0,0,1-1.87,6.79,10.71,10.71,0,0,1-5.06,4.41l8.76,14.44h-8.38l-7.84-12.87h-7.35v12.87ZM186.25,238h9.36a3.94,3.94,0,0,0,1.92-.49,4.91,4.91,0,0,0,1.54-1.32,6.61,6.61,0,0,0,1-2,7.64,7.64,0,0,0,.38-2.43,6.94,6.94,0,0,0-.43-2.49,6.5,6.5,0,0,0-1.16-2,5.27,5.27,0,0,0-1.68-1.3,4.35,4.35,0,0,0-1.92-.46h-9V238Zm57.87,19.69a17.45,17.45,0,0,1-7.65-1.65,18.79,18.79,0,0,1-5.89-4.38,20.32,20.32,0,0,1-5.16-13.44,19.3,19.3,0,0,1,1.43-7.35,20.3,20.3,0,0,1,3.95-6.22,18.83,18.83,0,0,1,6-4.3,17.74,17.74,0,0,1,7.52-1.6,16.86,16.86,0,0,1,7.6,1.7,19,19,0,0,1,5.87,4.46,20.54,20.54,0,0,1,3.79,6.27,19.74,19.74,0,0,1,1.35,7.14,19.42,19.42,0,0,1-1.41,7.33,19.9,19.9,0,0,1-3.89,6.17,18.72,18.72,0,0,1-5.95,4.27,17.74,17.74,0,0,1-7.52,1.6ZM233,238.19a15.44,15.44,0,0,0,.76,4.81,12.84,12.84,0,0,0,2.19,4.11,10.89,10.89,0,0,0,3.51,2.87,10.89,10.89,0,0,0,9.52,0,10.9,10.9,0,0,0,3.52-2.95,13.14,13.14,0,0,0,2.16-4.14,15.36,15.36,0,0,0,.73-4.68,15,15,0,0,0-.78-4.81,13.27,13.27,0,0,0-2.22-4.11,10.59,10.59,0,0,0-3.52-2.84,11,11,0,0,0-9.49.05,10.67,10.67,0,0,0-3.52,2.92,13.12,13.12,0,0,0-2.14,4.11,15.37,15.37,0,0,0-.73,4.68Zm35.64,19.2V219h17a10.9,10.9,0,0,1,4.89,1.11,12.66,12.66,0,0,1,3.87,2.92,13.78,13.78,0,0,1,2.54,4.11,12.36,12.36,0,0,1,.92,4.62,12.77,12.77,0,0,1-1.87,6.79A10.71,10.71,0,0,1,290.9,243l8.76,14.44h-8.38l-7.84-12.87h-7.35v12.87ZM276.08,238h9.36a3.94,3.94,0,0,0,1.92-.49,4.92,4.92,0,0,0,1.54-1.32,6.61,6.61,0,0,0,1-2,7.64,7.64,0,0,0,.38-2.43,6.94,6.94,0,0,0-.43-2.49,6.5,6.5,0,0,0-1.16-2A5.27,5.27,0,0,0,287,226a4.35,4.35,0,0,0-1.92-.46h-9V238Zm59.81,19.41V232L326,250.9h-4.06L312,232v25.42h-7.46V219h8l11.36,21.85L335.41,219h7.95v38.4Z"/><path class="cls-4" d="M216.68,296.8V278.9h-2.76v-2.07h2.76v-.54a9.41,9.41,0,0,1,1.57-5.77,5.08,5.08,0,0,1,4.29-2.09,7.71,7.71,0,0,1,2.3.35,6.68,6.68,0,0,1,1.92.92l-.81,1.88a3.88,3.88,0,0,0-1.32-.65,5.64,5.64,0,0,0-1.59-.23,3.17,3.17,0,0,0-2.8,1.42,7.32,7.32,0,0,0-1,4.1v.61h5.52v2.07h-5.52v17.9Zm19.21.38a9.61,9.61,0,0,0,4-.82,9.74,9.74,0,0,0,3.14-2.24,10.18,10.18,0,0,0,2.05-3.3,10.83,10.83,0,0,0,.73-3.95,10.68,10.68,0,0,0-.75-4,10.44,10.44,0,0,0-2.07-3.3,10,10,0,0,0-3.14-2.26,9.33,9.33,0,0,0-4-.84,9.2,9.2,0,0,0-3.95.84,10.06,10.06,0,0,0-3.12,2.26,10.45,10.45,0,0,0-2.07,3.3,10.68,10.68,0,0,0-.75,4,10.83,10.83,0,0,0,.73,3.95,10.18,10.18,0,0,0,2.05,3.3,9.8,9.8,0,0,0,3.12,2.24,9.48,9.48,0,0,0,4,.82Zm-7.25-10.27a8.63,8.63,0,0,1,.58-3.16,8.41,8.41,0,0,1,1.57-2.59,7.41,7.41,0,0,1,2.3-1.74,6.32,6.32,0,0,1,2.8-.63,6.45,6.45,0,0,1,2.82.63,7.48,7.48,0,0,1,2.32,1.72,8.16,8.16,0,0,1,1.57,2.57,8.82,8.82,0,0,1,0,6.27,8.21,8.21,0,0,1-1.57,2.55,7.48,7.48,0,0,1-2.32,1.73,6.45,6.45,0,0,1-2.82.63,6.62,6.62,0,0,1-2.82-.61,7,7,0,0,1-2.3-1.71,8.48,8.48,0,0,1-1.55-2.53,8.33,8.33,0,0,1-.58-3.12Zm31.51-7.78a8.2,8.2,0,0,0-4.6,1.46,7.35,7.35,0,0,0-2.76,3.8V296.8h-2.61v-20h2.45v4.79a9.09,9.09,0,0,1,3-3.6,6.93,6.93,0,0,1,4-1.3,2.63,2.63,0,0,1,.5,0v2.38ZM273,296.8V269.58h9.24a14,14,0,0,1,5.69,1.07,11.58,11.58,0,0,1,4.06,2.91,12.28,12.28,0,0,1,2.45,4.31,16.56,16.56,0,0,1,.82,5.27,16.23,16.23,0,0,1-.92,5.62,12.18,12.18,0,0,1-2.63,4.29,11.73,11.73,0,0,1-4.1,2.76,14.14,14.14,0,0,1-5.39,1Zm19.59-13.65a14.05,14.05,0,0,0-.69-4.5,10.18,10.18,0,0,0-2-3.55,9,9,0,0,0-3.24-2.32,11.07,11.07,0,0,0-4.41-.82h-6.56v22.46h6.56a10.88,10.88,0,0,0,4.47-.86,9.08,9.08,0,0,0,3.24-2.38,10.3,10.3,0,0,0,2-3.57,14.29,14.29,0,0,0,.67-4.47Zm12.31,14a7.06,7.06,0,0,1-2.63-.48,6.62,6.62,0,0,1-2.11-1.32,6,6,0,0,1-1.9-4.41,4.92,4.92,0,0,1,.61-2.42,5.85,5.85,0,0,1,1.73-1.92,8.45,8.45,0,0,1,2.64-1.25,12.18,12.18,0,0,1,3.37-.44,18.41,18.41,0,0,1,3.11.27,13.46,13.46,0,0,1,2.8.77v-1.8a5.8,5.8,0,0,0-1.5-4.2,5.48,5.48,0,0,0-4.14-1.55,8.8,8.8,0,0,0-3.14.61,15.15,15.15,0,0,0-3.26,1.76l-.92-1.73a13.49,13.49,0,0,1,7.51-2.61,8.06,8.06,0,0,1,5.9,2.11,7.79,7.79,0,0,1,2.15,5.83v9q0,1.07,1,1.07v2.3a6.24,6.24,0,0,1-1,.12,2.24,2.24,0,0,1-1.55-.5A1.88,1.88,0,0,1,313,295l-.08-1.57a9.05,9.05,0,0,1-3.47,2.76,10.67,10.67,0,0,1-4.5,1Zm.61-2a9,9,0,0,0,3.74-.77,6.1,6.1,0,0,0,2.59-2,2.39,2.39,0,0,0,.52-.75,1.91,1.91,0,0,0,.17-.75v-3.26a16,16,0,0,0-2.7-.77,15.13,15.13,0,0,0-2.86-.27,8,8,0,0,0-4.49,1.15,3.5,3.5,0,0,0-1.72,3,4.14,4.14,0,0,0,.36,1.73,4.37,4.37,0,0,0,1,1.4,4.67,4.67,0,0,0,1.51.94,5.11,5.11,0,0,0,1.88.34Zm25.22-16.06a8.2,8.2,0,0,0-4.6,1.46,7.35,7.35,0,0,0-2.76,3.8V296.8H320.8v-20h2.45v4.79a9.09,9.09,0,0,1,3-3.6,6.93,6.93,0,0,1,4-1.3,2.63,2.63,0,0,1,.5,0v2.38Zm13.07,16.71-.67.31q-.44.19-1,.38a11.81,11.81,0,0,1-1.3.34,7.42,7.42,0,0,1-1.53.15,5.57,5.57,0,0,1-1.61-.23,3.75,3.75,0,0,1-1.34-.71,3.49,3.49,0,0,1-.92-1.21,3.9,3.9,0,0,1-.34-1.69V278.9h-2.76v-2.07h2.76v-6.75h2.61v6.75h4.6v2.07h-4.6v13.57a2.07,2.07,0,0,0,.79,1.63,2.69,2.69,0,0,0,1.63.52,4.9,4.9,0,0,0,2-.36,8.67,8.67,0,0,0,1.07-.52Z"/></g></g></svg>