<svg xmlns="http://www.w3.org/2000/svg" viewBox="0 0 543.65 146.54"><defs><style>.cls-1{fill:#0072bb;}.cls-1,.cls-2,.cls-3,.cls-4{fill-rule:evenodd;}.cls-2{fill:#005098;}.cls-3{fill:#35b4e9;}.cls-5{fill:none;stroke:#000;stroke-linecap:round;stroke-linejoin:round;stroke-width:1.21px;}</style></defs><title>Asset 2</title><g id="Layer_2" data-name="Layer 2"><g id="Layer_1-2" data-name="Layer 1"><path class="cls-1" d="M62.72,69.58l-.18.23.18-.23ZM85.21,48.64h0Zm0,0h0Zm0,0h0Zm0,0h0Zm0,0h0Zm0,0h0Zm0,0h0Zm0,0h0Zm0,0h0Zm0,0h0Zm0,0h0Zm0,0h0Zm0,0h0Zm0,0h0Zm0,0h0Zm0,0h0Zm0,0h0Zm0,0h0Zm.12,0h0Zm.14,0h0Zm2,.12.2,0-.2,0ZM108,44.38l.14-.23-.09.15-.05.08ZM46.32,28.13a48.86,48.86,0,1,0,13,96.52,48.63,48.63,0,0,1-6.92-25.09q0-.39,0-.78a42.54,42.54,0,0,1-6.1-70.65Zm8.8,55.43q.34-1,.71-1.93-.38,1-.71,1.93Zm1-2.61.25-.58-.25.58Zm.42-1,.23-.53-.23.53Zm.84-1.82.07-.14.07-.14-.14.28Zm.85-1.66h0Zm0,0h0Zm0,0h0Zm0,0h0Zm0,0h0Zm0,0h0Zm0,0h0Zm0,0h0Zm0,0h0Zm0,0h0Zm0,0h0Zm0,0h0Zm0,0h0Zm0,0h0Zm0,0h0Zm0,0h0Zm0,0h0Zm0,0h0Zm0,0h0Zm0,0h0Zm0,0h0Zm0,0h0Zm0,0h0Zm0,0h0Zm0,0h0Zm.28-.51h0Zm0,0h0Zm0,0h0Zm0,0h0Zm.1-.17h0l0,.07Zm0-.07h0Zm0,0h0Zm0,0h0l0,.06Zm0-.06h0Zm0,0,0,0,0,0Zm0-.05h0Zm0,0h0Zm0,0h0Zm0,0h0Zm0,0Zm0,0h0Zm0,0h0Zm0,0h0Zm0,0h0Zm0,0h0Zm0,0h0Zm0,0h0Zm0,0h0Zm0,0h0Zm0,0h0Zm0,0h0Zm0-.07h.23l-.23.38Zm37-18.23a7.83,7.83,0,0,1-1.94,2.74h.12l0,0,0,0,0,0h0l0,0h0l0,0h0l0,0h0l0,0h0l0,0h0l0,0h0l0,0h0l0,0h0l0,0h0l0,0h0l0,0h0l0,0h0l0,0h0l0,0h0l0,0h0l0,0h0l0,0h0l0,0h0l0,0h0l0,0h0l0,0h0l0,0h0l0,0h0l0,0h0l0,0h0l0,0h0l0,0h0l0,0h0l0,0h0l0,0h0l0,0h0l0,0h0l0,0h0l0,0h0l0,0h0l0,0h0l0,0h0l0,0h0l0,0h0l0,0h0l0,0h0l0,0h0l0,0h0l0,0h0l0,0h0l0,0h0l0,0h0l0,0h0l0,0h0l0,0h0l0,0h0l0,0,0,0h0l0,0h0l0,0h0l0,0h0l0,0h0l0,0h0l0,0h0l0,0h0l0,0Zm2.66,1.41h0Zm0,0A7.86,7.86,0,0,0,101,55.64l0,0h0l0,0h0l0,0h0l0,0h0l0,0h0l0,0h0l0,0h0l0,0h0l0,0h0l0,0h0l-.06.08h0l0,0h0l0,0h0l0,0h0l0,0h0l0,0h0l0,0h0l0,0h0l0,0h0l0,0h0l0,0v0l0,0v0l0,0,0,0,0,0,0,0,0,0,0,0,0,0,0,0,0,0v0l0,0h0l0,0h0l0,0h0l0,0h0l0,0h0l0,0h0l0,0h0l0,0h0l0,0h0l0,0h0l0,0h0l0,0h0l0,0h0l0,0h0l0,0h0l0,0h0l0,0h0l0,0h0l0,0h0l0,0h0l0,0h0l0,0h0l0,0h0l0,0h0l0,0h0l0,0h0l0,0h0l0,0h0l0,0h0l0,0h0l0,0h0l0,0h0Z"/><path class="cls-2" d="M82,71.66l.3.09-.3-.09ZM98,31.66a38.09,38.09,0,0,0-23,.55,24.08,24.08,0,0,1,22.17-3.89c-8.44-6.65-24-9.09-33.33-6.66a22.79,22.79,0,0,0-23.35,4c.21,0,.43,0,.65,0a6.5,6.5,0,0,1,5.11,2.47h.11a42.54,42.54,0,0,0,6.1,70.65,48.66,48.66,0,0,1,10.27-29.2l.11-.15a7.63,7.63,0,0,0,1.43,4.23,7.22,7.22,0,0,1,8.63,2.82,7.68,7.68,0,0,1-7-1.15,18.53,18.53,0,0,0,28.7-7.11,11.81,11.81,0,0,1-4.84,3.3l.1-.12h0a7.78,7.78,0,0,0,1.75-4.93v0a12.28,12.28,0,0,1-14.74,1.77A11.92,11.92,0,0,1,76,67.11a11.75,11.75,0,0,1-1.89-4.66A11.81,11.81,0,0,1,84.93,48.65l.81,0h0a11.81,11.81,0,0,1,3.25.46l.76.25a10.38,10.38,0,0,0,7,3.54v0q0,.27,0,.55a7.8,7.8,0,0,1-.61,3,8.14,8.14,0,0,1-1.82,2.75h.11a7.78,7.78,0,0,0,4.33-1.31h0a8.09,8.09,0,0,0,2.28-2.35,7.77,7.77,0,0,0,1.18-3.71h0v0a10.42,10.42,0,0,0,5.49-7.07q.11-.22.24-.42a6.8,6.8,0,0,1,3.14-2.69,16,16,0,0,0-9.88-8.76l0-.07Q99.63,32.15,98,31.66Z"/><path class="cls-3" d="M17.48,75.9A54.48,54.48,0,0,1,45.66,28.17a48.86,48.86,0,0,0,3.19,97.61H50A54.51,54.51,0,0,1,17.48,75.9Z"/><path class="cls-4" d="M176.76,65.42a12.19,12.19,0,0,0,2.73,1.28,12.88,12.88,0,0,0,4.41.7,7.74,7.74,0,0,0,3.89-.84A5.31,5.31,0,0,0,190,64a14.14,14.14,0,0,0,1-4.33q.23-2.58.23-6.07v-21h8v21a68,68,0,0,1-.49,8.57,17.28,17.28,0,0,1-2.09,6.59A10.79,10.79,0,0,1,192,73a18.34,18.34,0,0,1-8.13,1.51A15.4,15.4,0,0,1,175,71.92l1.8-6.5Zm41.46-32.81h7.08L241,73.84h-8.25l-3.83-10.28h-14.4l-3.77,10.28h-8.25l15.74-41.23Zm9.23,25.32-5.69-16.2-5.92,16.2ZM272.64,69.2a15.76,15.76,0,0,1-11.5,4.94,18.21,18.21,0,0,1-7.64-1.63A19.31,19.31,0,0,1,247.29,68a21.37,21.37,0,0,1-4.18-6.71A22.3,22.3,0,0,1,241.57,53a20.93,20.93,0,0,1,5.78-14.55A20.31,20.31,0,0,1,253.7,34a19.08,19.08,0,0,1,8-1.66,19.32,19.32,0,0,1,10,2.44,15.78,15.78,0,0,1,6.24,6.56l-6,4.41A11.1,11.1,0,0,0,267.5,41a12,12,0,0,0-6.13-1.63,10.45,10.45,0,0,0-4.79,1.1,11.22,11.22,0,0,0-3.72,3,14.25,14.25,0,0,0-2.38,4.41,16.42,16.42,0,0,0-.84,5.28,15.61,15.61,0,0,0,.93,5.43A13.83,13.83,0,0,0,253.12,63,12,12,0,0,0,257,66,11,11,0,0,0,261.83,67q6,0,10.8-5.63v-2.9h-8.3V52.65h14.92v21.2h-6.62V69.2ZM303.53,67a9.2,9.2,0,0,0,4.79-1.16,9.37,9.37,0,0,0,3.14-3,12.48,12.48,0,0,0,1.68-4.27,24.7,24.7,0,0,0,.49-5v-21h8v21a30.05,30.05,0,0,1-1,8,18.25,18.25,0,0,1-3.19,6.5,15.3,15.3,0,0,1-5.6,4.41,19,19,0,0,1-8.19,1.63,18.74,18.74,0,0,1-8.39-1.71,15.66,15.66,0,0,1-5.6-4.53,18.08,18.08,0,0,1-3.11-6.53,30.82,30.82,0,0,1-1-7.72v-21h8v21a25,25,0,0,0,.49,5,12.47,12.47,0,0,0,1.68,4.27A8.73,8.73,0,0,0,303.53,67Zm36.12-34.44h7.08l15.68,41.23h-8.25l-3.83-10.28h-14.4l-3.77,10.28h-8.25l15.74-41.23Zm9.23,25.32-5.69-16.2-5.92,16.2Zm18.06,15.91V32.61h18.23a11.71,11.71,0,0,1,5.26,1.19,13.6,13.6,0,0,1,4.15,3.14,14.8,14.8,0,0,1,2.73,4.41,13.27,13.27,0,0,1,1,5,13.71,13.71,0,0,1-2,7.29,11.5,11.5,0,0,1-5.43,4.73l9.41,15.5h-9L382.85,60H375V73.84ZM375,53h10a4.24,4.24,0,0,0,2.06-.52A5.27,5.27,0,0,0,388.72,51a7.1,7.1,0,0,0,1.1-2.12,8.21,8.21,0,0,0,.41-2.61,7.44,7.44,0,0,0-.46-2.67,7,7,0,0,0-1.25-2.12,5.65,5.65,0,0,0-1.8-1.39,4.67,4.67,0,0,0-2.06-.49H375V53Zm62.14,21.14a18.73,18.73,0,0,1-8.22-1.77,20.17,20.17,0,0,1-6.33-4.7A21.81,21.81,0,0,1,417,53.23a20.72,20.72,0,0,1,1.54-7.9,21.8,21.8,0,0,1,4.24-6.68A20.23,20.23,0,0,1,429.19,34a19,19,0,0,1,8.07-1.71,18.1,18.1,0,0,1,8.16,1.83,20.38,20.38,0,0,1,6.3,4.79,22.06,22.06,0,0,1,4.06,6.74,21.2,21.2,0,0,1,1.45,7.67,20.85,20.85,0,0,1-1.51,7.87,21.36,21.36,0,0,1-4.18,6.62,20.1,20.1,0,0,1-6.39,4.59,19,19,0,0,1-8.07,1.71Zm-12-20.91a16.59,16.59,0,0,0,.81,5.17,13.8,13.8,0,0,0,2.35,4.41,11.69,11.69,0,0,0,3.77,3.08,11.69,11.69,0,0,0,10.22,0,11.71,11.71,0,0,0,3.77-3.16,14.11,14.11,0,0,0,2.32-4.44,16.5,16.5,0,0,0,.78-5,16.06,16.06,0,0,0-.84-5.17,14.25,14.25,0,0,0-2.38-4.41,11.36,11.36,0,0,0-3.77-3,11.76,11.76,0,0,0-10.19.06,11.46,11.46,0,0,0-3.77,3.14,14.09,14.09,0,0,0-2.29,4.41,16.49,16.49,0,0,0-.78,5ZM463.4,73.84V32.61h18.23a11.71,11.71,0,0,1,5.26,1.19A13.6,13.6,0,0,1,491,36.94a14.8,14.8,0,0,1,2.73,4.41,13.27,13.27,0,0,1,1,5,13.71,13.71,0,0,1-2,7.29,11.5,11.5,0,0,1-5.43,4.73l9.41,15.5h-9L479.31,60h-7.9V73.84Zm8-20.85h10a4.24,4.24,0,0,0,2.06-.52A5.27,5.27,0,0,0,485.17,51a7.1,7.1,0,0,0,1.1-2.12,8.21,8.21,0,0,0,.41-2.61,7.44,7.44,0,0,0-.46-2.67A7,7,0,0,0,485,41.52a5.65,5.65,0,0,0-1.8-1.39,4.67,4.67,0,0,0-2.06-.49h-9.7V53Zm64.23,20.85V46.55L525,66.87h-4.36L510,46.55V73.84h-8V32.61h8.59L522.8,56.07l12.31-23.46h8.54V73.84Z"/><line class="cls-5" x1="142.78" y1="0.61" x2="142.78" y2="145.93"/><path class="cls-4" d="M182.4,116.16V96.93h-3V94.71h3v-.58a10.1,10.1,0,0,1,1.69-6.2,5.46,5.46,0,0,1,4.61-2.24,8.29,8.29,0,0,1,2.47.37,7.17,7.17,0,0,1,2.06,1l-.86,2a4.17,4.17,0,0,0-1.42-.7,6.05,6.05,0,0,0-1.71-.25,3.4,3.4,0,0,0-3,1.52,7.86,7.86,0,0,0-1,4.4v.66h5.93v2.22H185.2v19.22Zm20.62.41a10.31,10.31,0,0,0,4.3-.89,10.46,10.46,0,0,0,3.38-2.41,10.93,10.93,0,0,0,2.2-3.54,11.63,11.63,0,0,0,.78-4.24,11.47,11.47,0,0,0-.8-4.28,11.22,11.22,0,0,0-2.22-3.54,10.73,10.73,0,0,0-3.38-2.43,10,10,0,0,0-4.26-.91,9.88,9.88,0,0,0-4.24.91,10.8,10.8,0,0,0-3.35,2.43,11.22,11.22,0,0,0-2.22,3.54,11.47,11.47,0,0,0-.8,4.28,11.62,11.62,0,0,0,.78,4.24,10.92,10.92,0,0,0,2.2,3.54,10.52,10.52,0,0,0,3.35,2.41,10.17,10.17,0,0,0,4.28.89Zm-7.78-11a9.27,9.27,0,0,1,.62-3.4,9,9,0,0,1,1.69-2.78A8,8,0,0,1,200,97.49a6.79,6.79,0,0,1,3-.68,6.93,6.93,0,0,1,3,.68,8,8,0,0,1,2.49,1.85,8.76,8.76,0,0,1,1.69,2.76,9.48,9.48,0,0,1,0,6.73,8.82,8.82,0,0,1-1.69,2.74,8,8,0,0,1-2.49,1.85,6.93,6.93,0,0,1-3,.68,7.11,7.11,0,0,1-3-.66,7.54,7.54,0,0,1-2.47-1.83,9.11,9.11,0,0,1-1.67-2.72,9,9,0,0,1-.62-3.36Zm33.84-8.36a8.81,8.81,0,0,0-4.94,1.56,7.89,7.89,0,0,0-3,4.08v13.34h-2.8V94.71H221v5.15A9.76,9.76,0,0,1,224.22,96a7.44,7.44,0,0,1,4.32-1.4,2.84,2.84,0,0,1,.53,0v2.55Zm13.83,19V86.93h9.92a15,15,0,0,1,6.11,1.15,12.43,12.43,0,0,1,4.36,3.13,13.19,13.19,0,0,1,2.63,4.63,17.79,17.79,0,0,1,.88,5.66,17.43,17.43,0,0,1-1,6,13.08,13.08,0,0,1-2.82,4.61,12.6,12.6,0,0,1-4.4,3,15.19,15.19,0,0,1-5.78,1Zm21-14.65a15.08,15.08,0,0,0-.74-4.84A10.93,10.93,0,0,0,261,92.86a9.68,9.68,0,0,0-3.48-2.49,11.89,11.89,0,0,0-4.73-.89h-7V113.6h7a11.68,11.68,0,0,0,4.8-.93,9.75,9.75,0,0,0,3.48-2.55,11.06,11.06,0,0,0,2.12-3.83,15.35,15.35,0,0,0,.72-4.8Zm13.21,15.07a7.58,7.58,0,0,1-2.82-.51,7.11,7.11,0,0,1-2.26-1.42,6.4,6.4,0,0,1-2-4.73,5.28,5.28,0,0,1,.66-2.59,6.28,6.28,0,0,1,1.85-2.06,9.07,9.07,0,0,1,2.84-1.34,13.08,13.08,0,0,1,3.62-.47,19.78,19.78,0,0,1,3.33.29,14.47,14.47,0,0,1,3,.82v-1.93a6.23,6.23,0,0,0-1.61-4.51,5.88,5.88,0,0,0-4.45-1.67,9.45,9.45,0,0,0-3.38.66,16.26,16.26,0,0,0-3.5,1.89l-1-1.85a14.48,14.48,0,0,1,8.07-2.8,8.66,8.66,0,0,1,6.34,2.26,8.37,8.37,0,0,1,2.31,6.26v9.67q0,1.15,1,1.15v2.47a6.69,6.69,0,0,1-1.07.12,2.41,2.41,0,0,1-1.67-.54,2,2,0,0,1-.64-1.48l-.08-1.69a9.73,9.73,0,0,1-3.73,3,11.46,11.46,0,0,1-4.84,1Zm.66-2.14a9.67,9.67,0,0,0,4-.82,6.55,6.55,0,0,0,2.78-2.18,2.56,2.56,0,0,0,.56-.8,2,2,0,0,0,.19-.8v-3.5a17.16,17.16,0,0,0-2.9-.82,16.26,16.26,0,0,0-3.07-.29,8.53,8.53,0,0,0-4.82,1.23,3.75,3.75,0,0,0-1.85,3.25,4.44,4.44,0,0,0,.39,1.85,4.69,4.69,0,0,0,1.07,1.5,5,5,0,0,0,1.63,1,5.49,5.49,0,0,0,2,.37Zm27.09-17.25A8.81,8.81,0,0,0,300,98.74a7.89,7.89,0,0,0-3,4.08v13.34h-2.8V94.71h2.63v5.15A9.76,9.76,0,0,1,300,96a7.44,7.44,0,0,1,4.32-1.4,2.84,2.84,0,0,1,.53,0v2.55Zm14,17.95-.72.33q-.47.21-1.09.41a12.7,12.7,0,0,1-1.4.37,8,8,0,0,1-1.65.16,6,6,0,0,1-1.73-.25,4,4,0,0,1-1.44-.76,3.75,3.75,0,0,1-1-1.3,4.19,4.19,0,0,1-.37-1.81V96.93h-3V94.71h3V87.46h2.8v7.25h4.94v2.22h-4.94V111.5a2.22,2.22,0,0,0,.84,1.75,2.89,2.89,0,0,0,1.75.56,5.26,5.26,0,0,0,2.1-.39,9.21,9.21,0,0,0,1.15-.56Z"/></g></g></svg>